<?xml version='1.0' encoding='utf-8'?>
<svg xmlns="http://www.w3.org/2000/svg" version="2.0"><polyline points="10,528.89786 10,428.89786 129.832,451.66922 210.65679999999998,464.08335 355.83279999999996,480.64461 409.2616,451.66671 512.9248,480.65115000000003 546.4672,480.70206 553.9480000000001,480.70206 567.6472000000001,480.70206 662.3608000000002,480.6494 711.8104000000002,451.67021 716.8936000000002,451.67021 723.4216000000002,451.67021 735.4048000000003,451.66372 751.6168000000002,451.67383 780.7048000000002,187.28811 847.4248000000002,157.55747000000002 897.7600000000002,109.33701000000002 955.9528000000003,418.83513 1031.6344000000001,451.67078000000004 1048.7176000000002,451.67078000000004 1063.9,451.67078000000004 1092.8584,451.66895 1149.16,451.07094 1185.3592,451.66841 1276.9720000000002,480.6587 1451.7928000000002,428.89786 1451.7928000000002,528.89786 10,528.89786" style="fill:white;stroke:red;stroke-width:4" /><text x="10" y="548.89786" style="writing-mode: tb; glyph-orientation-vertical: 0;">Inicio</text><text x="129.832" y="548.89786" style="writing-mode: tb; glyph-orientation-vertical: 0;">Punto2</text><text x="210.65679999999998" y="548.89786" style="writing-mode: tb; glyph-orientation-vertical: 0;">Punto3</text><text x="355.83279999999996" y="548.89786" style="writing-mode: tb; glyph-orientation-vertical: 0;">Punto4</text><text x="409.2616" y="548.89786" style="writing-mode: tb; glyph-orientation-vertical: 0;">Punto5</text><text x="512.9248" y="548.89786" style="writing-mode: tb; glyph-orientation-vertical: 0;">Punto6</text><text x="553.9480000000001" y="548.89786" style="writing-mode: tb; glyph-orientation-vertical: 0;">Punto8</text><text x="567.6472000000001" y="548.89786" style="writing-mode: tb; glyph-orientation-vertical: 0;">Punto9</text><text x="662.3608000000002" y="548.89786" style="writing-mode: tb; glyph-orientation-vertical: 0;">Punto10</text><text x="711.8104000000002" y="548.89786" style="writing-mode: tb; glyph-orientation-vertical: 0;">Punto11</text><text x="723.4216000000002" y="548.89786" style="writing-mode: tb; glyph-orientation-vertical: 0;">Punto13</text><text x="735.4048000000003" y="548.89786" style="writing-mode: tb; glyph-orientation-vertical: 0;">Punto14</text><text x="751.6168000000002" y="548.89786" style="writing-mode: tb; glyph-orientation-vertical: 0;">Punto15</text><text x="780.7048000000002" y="548.89786" style="writing-mode: tb; glyph-orientation-vertical: 0;">Punto16</text><text x="847.4248000000002" y="548.89786" style="writing-mode: tb; glyph-orientation-vertical: 0;">Punto17</text><text x="897.7600000000002" y="548.89786" style="writing-mode: tb; glyph-orientation-vertical: 0;">Punto18</text><text x="955.9528000000003" y="548.89786" style="writing-mode: tb; glyph-orientation-vertical: 0;">Punto19</text><text x="1031.6344000000001" y="548.89786" style="writing-mode: tb; glyph-orientation-vertical: 0;">Punto20</text><text x="1048.7176000000002" y="548.89786" style="writing-mode: tb; glyph-orientation-vertical: 0;">Punto21</text><text x="1063.9" y="548.89786" style="writing-mode: tb; glyph-orientation-vertical: 0;">Punto22</text><text x="1092.8584" y="548.89786" style="writing-mode: tb; glyph-orientation-vertical: 0;">Punto23</text><text x="1149.16" y="548.89786" style="writing-mode: tb; glyph-orientation-vertical: 0;">Punto24</text><text x="1185.3592" y="548.89786" style="writing-mode: tb; glyph-orientation-vertical: 0;">Punto25</text><text x="1276.9720000000002" y="548.89786" style="writing-mode: tb; glyph-orientation-vertical: 0;">Punto26</text><text x="1451.7928000000002" y="548.89786" style="writing-mode: tb; glyph-orientation-vertical: 0;">Final</text></svg>