<?xml version="1.0" encoding="utf-8"?><svg width="auto" height="4670" style="overflow:visible " version="1.1" xmlns="http://www.w3.org/2000/svg"><rect x="20" y="20" width="200" height="40" style="fill:white;stroke:black;stroke-width:1" /><text x="30" y="30" font-size="10" style="fill:blue">xs:schema</text><text x="30" y="40" font-size="8" style="fill:black">xmlns: http://www.uniovi.es</text><text x="30" y="50" font-size="8" style="fill:black">elementFormDefault: qualified</text><text x="30" y="60" font-size="8" style="fill:black">targetNamespace: http://www.uniovi.es</text><text x="30" y="70" font-size="8" style="fill:black">xmlns:xs: http://www.w3.org/2001/XMLSchema</text><rect x="240" y="20" width="200" height="40" style="fill:white;stroke:black;stroke-width:1" /><text x="250" y="30" font-size="10" style="fill:blue">xs:element</text><path d="M220 40 C240 40 220 40 240 40" style="fill:transparent;stroke:black" /><text x="250" y="40" font-size="8" style="fill:black">name: circuito</text><rect x="460" y="20" width="200" height="40" style="fill:white;stroke:black;stroke-width:1" /><text x="470" y="30" font-size="10" style="fill:blue">xs:complexType</text><path d="M440 40 C460 40 440 40 460 40" style="fill:transparent;stroke:black" /><rect x="680" y="20" width="200" height="40" style="fill:white;stroke:black;stroke-width:1" /><text x="690" y="30" font-size="10" style="fill:blue">xs:sequence</text><path d="M660 40 C680 40 660 40 680 40" style="fill:transparent;stroke:black" /><rect x="900" y="20" width="200" height="40" style="fill:white;stroke:black;stroke-width:1" /><text x="910" y="30" font-size="10" style="fill:blue">xs:element</text><path d="M880 40 C900 40 880 40 900 40" style="fill:transparent;stroke:black" /><text x="910" y="40" font-size="8" style="fill:black">ref: nombre</text><rect x="900" y="70" width="200" height="40" style="fill:white;stroke:black;stroke-width:1" /><text x="910" y="80" font-size="10" style="fill:blue">xs:element</text><path d="M880 40 C900 40 880 90 900 90" style="fill:transparent;stroke:black" /><text x="910" y="90" font-size="8" style="fill:black">ref: longitudTotal</text><rect x="900" y="120" width="200" height="40" style="fill:white;stroke:black;stroke-width:1" /><text x="910" y="130" font-size="10" style="fill:blue">xs:element</text><path d="M880 40 C900 40 880 140 900 140" style="fill:transparent;stroke:black" /><text x="910" y="140" font-size="8" style="fill:black">ref: anchuraMedia</text><rect x="900" y="170" width="200" height="40" style="fill:white;stroke:black;stroke-width:1" /><text x="910" y="180" font-size="10" style="fill:blue">xs:element</text><path d="M880 40 C900 40 880 190 900 190" style="fill:transparent;stroke:black" /><text x="910" y="190" font-size="8" style="fill:black">ref: fecha</text><rect x="900" y="220" width="200" height="40" style="fill:white;stroke:black;stroke-width:1" /><text x="910" y="230" font-size="10" style="fill:blue">xs:element</text><path d="M880 40 C900 40 880 240 900 240" style="fill:transparent;stroke:black" /><text x="910" y="240" font-size="8" style="fill:black">ref: hora</text><rect x="900" y="270" width="200" height="40" style="fill:white;stroke:black;stroke-width:1" /><text x="910" y="280" font-size="10" style="fill:blue">xs:element</text><path d="M880 40 C900 40 880 290 900 290" style="fill:transparent;stroke:black" /><text x="910" y="290" font-size="8" style="fill:black">ref: vueltas</text><rect x="900" y="320" width="200" height="40" style="fill:white;stroke:black;stroke-width:1" /><text x="910" y="330" font-size="10" style="fill:blue">xs:element</text><path d="M880 40 C900 40 880 340 900 340" style="fill:transparent;stroke:black" /><text x="910" y="340" font-size="8" style="fill:black">ref: localidad</text><rect x="900" y="370" width="200" height="40" style="fill:white;stroke:black;stroke-width:1" /><text x="910" y="380" font-size="10" style="fill:blue">xs:element</text><path d="M880 40 C900 40 880 390 900 390" style="fill:transparent;stroke:black" /><text x="910" y="390" font-size="8" style="fill:black">ref: país</text><rect x="900" y="420" width="200" height="40" style="fill:white;stroke:black;stroke-width:1" /><text x="910" y="430" font-size="10" style="fill:blue">xs:element</text><path d="M880 40 C900 40 880 440 900 440" style="fill:transparent;stroke:black" /><text x="910" y="440" font-size="8" style="fill:black">ref: referencias</text><rect x="900" y="470" width="200" height="40" style="fill:white;stroke:black;stroke-width:1" /><text x="910" y="480" font-size="10" style="fill:blue">xs:element</text><path d="M880 40 C900 40 880 490 900 490" style="fill:transparent;stroke:black" /><text x="910" y="490" font-size="8" style="fill:black">ref: fotografías</text><rect x="900" y="520" width="200" height="40" style="fill:white;stroke:black;stroke-width:1" /><text x="910" y="530" font-size="10" style="fill:blue">xs:element</text><path d="M880 40 C900 40 880 540 900 540" style="fill:transparent;stroke:black" /><text x="910" y="540" font-size="8" style="fill:black">ref: vídeos</text><rect x="900" y="570" width="200" height="40" style="fill:white;stroke:black;stroke-width:1" /><text x="910" y="580" font-size="10" style="fill:blue">xs:element</text><path d="M880 40 C900 40 880 590 900 590" style="fill:transparent;stroke:black" /><text x="910" y="590" font-size="8" style="fill:black">ref: coordenadas</text><rect x="900" y="620" width="200" height="40" style="fill:white;stroke:black;stroke-width:1" /><text x="910" y="630" font-size="10" style="fill:blue">xs:element</text><path d="M880 40 C900 40 880 640 900 640" style="fill:transparent;stroke:black" /><text x="910" y="640" font-size="8" style="fill:black">ref: tramos</text><rect x="240" y="820" width="200" height="40" style="fill:white;stroke:black;stroke-width:1" /><text x="250" y="830" font-size="10" style="fill:blue">xs:element</text><path d="M220 40 C240 40 220 840 240 840" style="fill:transparent;stroke:black" /><text x="250" y="840" font-size="8" style="fill:black">name: nombre</text><text x="250" y="850" font-size="8" style="fill:black">type: xs:string</text><rect x="240" y="870" width="200" height="40" style="fill:white;stroke:black;stroke-width:1" /><text x="250" y="880" font-size="10" style="fill:blue">xs:element</text><path d="M220 40 C240 40 220 890 240 890" style="fill:transparent;stroke:black" /><text x="250" y="890" font-size="8" style="fill:black">name: longitudTotal</text><rect x="460" y="870" width="200" height="40" style="fill:white;stroke:black;stroke-width:1" /><text x="470" y="880" font-size="10" style="fill:blue">xs:complexType</text><path d="M440 890 C460 890 440 890 460 890" style="fill:transparent;stroke:black" /><rect x="680" y="870" width="200" height="40" style="fill:white;stroke:black;stroke-width:1" /><text x="690" y="880" font-size="10" style="fill:blue">xs:simpleContent</text><path d="M660 890 C680 890 660 890 680 890" style="fill:transparent;stroke:black" /><rect x="900" y="870" width="200" height="40" style="fill:white;stroke:black;stroke-width:1" /><text x="910" y="880" font-size="10" style="fill:blue">xs:extension</text><path d="M880 890 C900 890 880 890 900 890" style="fill:transparent;stroke:black" /><text x="910" y="890" font-size="8" style="fill:black">base: xs:float</text><rect x="1120" y="870" width="200" height="40" style="fill:white;stroke:black;stroke-width:1" /><text x="1130" y="880" font-size="10" style="fill:blue">xs:attribute</text><path d="M1100 890 C1120 890 1100 890 1120 890" style="fill:transparent;stroke:black" /><text x="1130" y="890" font-size="8" style="fill:black">name: unidad</text><text x="1130" y="900" font-size="8" style="fill:black">type: xs:string</text><text x="1130" y="910" font-size="8" style="fill:black">use: required</text><rect x="240" y="1120" width="200" height="40" style="fill:white;stroke:black;stroke-width:1" /><text x="250" y="1130" font-size="10" style="fill:blue">xs:element</text><path d="M220 40 C240 40 220 1140 240 1140" style="fill:transparent;stroke:black" /><text x="250" y="1140" font-size="8" style="fill:black">name: anchuraMedia</text><rect x="460" y="1120" width="200" height="40" style="fill:white;stroke:black;stroke-width:1" /><text x="470" y="1130" font-size="10" style="fill:blue">xs:complexType</text><path d="M440 1140 C460 1140 440 1140 460 1140" style="fill:transparent;stroke:black" /><rect x="680" y="1120" width="200" height="40" style="fill:white;stroke:black;stroke-width:1" /><text x="690" y="1130" font-size="10" style="fill:blue">xs:simpleContent</text><path d="M660 1140 C680 1140 660 1140 680 1140" style="fill:transparent;stroke:black" /><rect x="900" y="1120" width="200" height="40" style="fill:white;stroke:black;stroke-width:1" /><text x="910" y="1130" font-size="10" style="fill:blue">xs:extension</text><path d="M880 1140 C900 1140 880 1140 900 1140" style="fill:transparent;stroke:black" /><text x="910" y="1140" font-size="8" style="fill:black">base: xs:string</text><rect x="1120" y="1120" width="200" height="40" style="fill:white;stroke:black;stroke-width:1" /><text x="1130" y="1130" font-size="10" style="fill:blue">xs:attribute</text><path d="M1100 1140 C1120 1140 1100 1140 1120 1140" style="fill:transparent;stroke:black" /><text x="1130" y="1140" font-size="8" style="fill:black">name: unidad</text><text x="1130" y="1150" font-size="8" style="fill:black">type: xs:string</text><text x="1130" y="1160" font-size="8" style="fill:black">use: required</text><rect x="240" y="1370" width="200" height="40" style="fill:white;stroke:black;stroke-width:1" /><text x="250" y="1380" font-size="10" style="fill:blue">xs:element</text><path d="M220 40 C240 40 220 1390 240 1390" style="fill:transparent;stroke:black" /><text x="250" y="1390" font-size="8" style="fill:black">name: fecha</text><text x="250" y="1400" font-size="8" style="fill:black">type: xs:date</text><rect x="240" y="1420" width="200" height="40" style="fill:white;stroke:black;stroke-width:1" /><text x="250" y="1430" font-size="10" style="fill:blue">xs:element</text><path d="M220 40 C240 40 220 1440 240 1440" style="fill:transparent;stroke:black" /><text x="250" y="1440" font-size="8" style="fill:black">name: hora</text><text x="250" y="1450" font-size="8" style="fill:black">type: xs:time</text><rect x="240" y="1470" width="200" height="40" style="fill:white;stroke:black;stroke-width:1" /><text x="250" y="1480" font-size="10" style="fill:blue">xs:element</text><path d="M220 40 C240 40 220 1490 240 1490" style="fill:transparent;stroke:black" /><text x="250" y="1490" font-size="8" style="fill:black">name: vueltas</text><text x="250" y="1500" font-size="8" style="fill:black">type: xs:integer</text><rect x="240" y="1520" width="200" height="40" style="fill:white;stroke:black;stroke-width:1" /><text x="250" y="1530" font-size="10" style="fill:blue">xs:element</text><path d="M220 40 C240 40 220 1540 240 1540" style="fill:transparent;stroke:black" /><text x="250" y="1540" font-size="8" style="fill:black">name: localidad</text><text x="250" y="1550" font-size="8" style="fill:black">type: xs:string</text><rect x="240" y="1570" width="200" height="40" style="fill:white;stroke:black;stroke-width:1" /><text x="250" y="1580" font-size="10" style="fill:blue">xs:element</text><path d="M220 40 C240 40 220 1590 240 1590" style="fill:transparent;stroke:black" /><text x="250" y="1590" font-size="8" style="fill:black">name: país</text><text x="250" y="1600" font-size="8" style="fill:black">type: xs:string</text><rect x="240" y="1620" width="200" height="40" style="fill:white;stroke:black;stroke-width:1" /><text x="250" y="1630" font-size="10" style="fill:blue">xs:element</text><path d="M220 40 C240 40 220 1640 240 1640" style="fill:transparent;stroke:black" /><text x="250" y="1640" font-size="8" style="fill:black">name: referencias</text><rect x="460" y="1620" width="200" height="40" style="fill:white;stroke:black;stroke-width:1" /><text x="470" y="1630" font-size="10" style="fill:blue">xs:complexType</text><path d="M440 1640 C460 1640 440 1640 460 1640" style="fill:transparent;stroke:black" /><rect x="680" y="1620" width="200" height="40" style="fill:white;stroke:black;stroke-width:1" /><text x="690" y="1630" font-size="10" style="fill:blue">xs:sequence</text><path d="M660 1640 C680 1640 660 1640 680 1640" style="fill:transparent;stroke:black" /><rect x="900" y="1620" width="200" height="40" style="fill:white;stroke:black;stroke-width:1" /><text x="910" y="1630" font-size="10" style="fill:blue">xs:element</text><path d="M880 1640 C900 1640 880 1640 900 1640" style="fill:transparent;stroke:black" /><text x="910" y="1640" font-size="8" style="fill:black">minOccurs: 3</text><text x="910" y="1650" font-size="8" style="fill:black">maxOccurs: unbounded</text><text x="910" y="1660" font-size="8" style="fill:black">ref: referencia</text><rect x="240" y="1820" width="200" height="40" style="fill:white;stroke:black;stroke-width:1" /><text x="250" y="1830" font-size="10" style="fill:blue">xs:element</text><path d="M220 40 C240 40 220 1840 240 1840" style="fill:transparent;stroke:black" /><text x="250" y="1840" font-size="8" style="fill:black">name: referencia</text><text x="250" y="1850" font-size="8" style="fill:black">type: xs:string</text><rect x="240" y="1870" width="200" height="40" style="fill:white;stroke:black;stroke-width:1" /><text x="250" y="1880" font-size="10" style="fill:blue">xs:element</text><path d="M220 40 C240 40 220 1890 240 1890" style="fill:transparent;stroke:black" /><text x="250" y="1890" font-size="8" style="fill:black">name: fotografías</text><rect x="460" y="1870" width="200" height="40" style="fill:white;stroke:black;stroke-width:1" /><text x="470" y="1880" font-size="10" style="fill:blue">xs:complexType</text><path d="M440 1890 C460 1890 440 1890 460 1890" style="fill:transparent;stroke:black" /><rect x="680" y="1870" width="200" height="40" style="fill:white;stroke:black;stroke-width:1" /><text x="690" y="1880" font-size="10" style="fill:blue">xs:sequence</text><path d="M660 1890 C680 1890 660 1890 680 1890" style="fill:transparent;stroke:black" /><rect x="900" y="1870" width="200" height="40" style="fill:white;stroke:black;stroke-width:1" /><text x="910" y="1880" font-size="10" style="fill:blue">xs:element</text><path d="M880 1890 C900 1890 880 1890 900 1890" style="fill:transparent;stroke:black" /><text x="910" y="1890" font-size="8" style="fill:black">minOccurs: 1</text><text x="910" y="1900" font-size="8" style="fill:black">maxOccurs: 5</text><text x="910" y="1910" font-size="8" style="fill:black">ref: fotografía</text><rect x="240" y="2070" width="200" height="40" style="fill:white;stroke:black;stroke-width:1" /><text x="250" y="2080" font-size="10" style="fill:blue">xs:element</text><path d="M220 40 C240 40 220 2090 240 2090" style="fill:transparent;stroke:black" /><text x="250" y="2090" font-size="8" style="fill:black">name: fotografía</text><rect x="460" y="2070" width="200" height="40" style="fill:white;stroke:black;stroke-width:1" /><text x="470" y="2080" font-size="10" style="fill:blue">xs:complexType</text><path d="M440 2090 C460 2090 440 2090 460 2090" style="fill:transparent;stroke:black" /><rect x="680" y="2070" width="200" height="40" style="fill:white;stroke:black;stroke-width:1" /><text x="690" y="2080" font-size="10" style="fill:blue">xs:simpleContent</text><path d="M660 2090 C680 2090 660 2090 680 2090" style="fill:transparent;stroke:black" /><rect x="900" y="2070" width="200" height="40" style="fill:white;stroke:black;stroke-width:1" /><text x="910" y="2080" font-size="10" style="fill:blue">xs:extension</text><path d="M880 2090 C900 2090 880 2090 900 2090" style="fill:transparent;stroke:black" /><text x="910" y="2090" font-size="8" style="fill:black">base: xs:string</text><rect x="1120" y="2070" width="200" height="40" style="fill:white;stroke:black;stroke-width:1" /><text x="1130" y="2080" font-size="10" style="fill:blue">xs:attribute</text><path d="M1100 2090 C1120 2090 1100 2090 1120 2090" style="fill:transparent;stroke:black" /><text x="1130" y="2090" font-size="8" style="fill:black">name: descripción</text><text x="1130" y="2100" font-size="8" style="fill:black">type: xs:string</text><text x="1130" y="2110" font-size="8" style="fill:black">use: required</text><rect x="240" y="2320" width="200" height="40" style="fill:white;stroke:black;stroke-width:1" /><text x="250" y="2330" font-size="10" style="fill:blue">xs:element</text><path d="M220 40 C240 40 220 2340 240 2340" style="fill:transparent;stroke:black" /><text x="250" y="2340" font-size="8" style="fill:black">name: vídeos</text><rect x="460" y="2320" width="200" height="40" style="fill:white;stroke:black;stroke-width:1" /><text x="470" y="2330" font-size="10" style="fill:blue">xs:complexType</text><path d="M440 2340 C460 2340 440 2340 460 2340" style="fill:transparent;stroke:black" /><rect x="680" y="2320" width="200" height="40" style="fill:white;stroke:black;stroke-width:1" /><text x="690" y="2330" font-size="10" style="fill:blue">xs:sequence</text><path d="M660 2340 C680 2340 660 2340 680 2340" style="fill:transparent;stroke:black" /><rect x="900" y="2320" width="200" height="40" style="fill:white;stroke:black;stroke-width:1" /><text x="910" y="2330" font-size="10" style="fill:blue">xs:element</text><path d="M880 2340 C900 2340 880 2340 900 2340" style="fill:transparent;stroke:black" /><text x="910" y="2340" font-size="8" style="fill:black">minOccurs: 0</text><text x="910" y="2350" font-size="8" style="fill:black">maxOccurs: 3</text><text x="910" y="2360" font-size="8" style="fill:black">ref: vídeo</text><rect x="240" y="2520" width="200" height="40" style="fill:white;stroke:black;stroke-width:1" /><text x="250" y="2530" font-size="10" style="fill:blue">xs:element</text><path d="M220 40 C240 40 220 2540 240 2540" style="fill:transparent;stroke:black" /><text x="250" y="2540" font-size="8" style="fill:black">name: vídeo</text><rect x="460" y="2520" width="200" height="40" style="fill:white;stroke:black;stroke-width:1" /><text x="470" y="2530" font-size="10" style="fill:blue">xs:complexType</text><path d="M440 2540 C460 2540 440 2540 460 2540" style="fill:transparent;stroke:black" /><rect x="680" y="2520" width="200" height="40" style="fill:white;stroke:black;stroke-width:1" /><text x="690" y="2530" font-size="10" style="fill:blue">xs:simpleContent</text><path d="M660 2540 C680 2540 660 2540 680 2540" style="fill:transparent;stroke:black" /><rect x="900" y="2520" width="200" height="40" style="fill:white;stroke:black;stroke-width:1" /><text x="910" y="2530" font-size="10" style="fill:blue">xs:extension</text><path d="M880 2540 C900 2540 880 2540 900 2540" style="fill:transparent;stroke:black" /><text x="910" y="2540" font-size="8" style="fill:black">base: xs:string</text><rect x="1120" y="2520" width="200" height="40" style="fill:white;stroke:black;stroke-width:1" /><text x="1130" y="2530" font-size="10" style="fill:blue">xs:attribute</text><path d="M1100 2540 C1120 2540 1100 2540 1120 2540" style="fill:transparent;stroke:black" /><text x="1130" y="2540" font-size="8" style="fill:black">name: descripción</text><text x="1130" y="2550" font-size="8" style="fill:black">type: xs:string</text><text x="1130" y="2560" font-size="8" style="fill:black">use: required</text><rect x="240" y="2770" width="200" height="40" style="fill:white;stroke:black;stroke-width:1" /><text x="250" y="2780" font-size="10" style="fill:blue">xs:element</text><path d="M220 40 C240 40 220 2790 240 2790" style="fill:transparent;stroke:black" /><text x="250" y="2790" font-size="8" style="fill:black">name: coordenadas</text><rect x="460" y="2770" width="200" height="40" style="fill:white;stroke:black;stroke-width:1" /><text x="470" y="2780" font-size="10" style="fill:blue">xs:complexType</text><path d="M440 2790 C460 2790 440 2790 460 2790" style="fill:transparent;stroke:black" /><rect x="680" y="2770" width="200" height="40" style="fill:white;stroke:black;stroke-width:1" /><text x="690" y="2780" font-size="10" style="fill:blue">xs:sequence</text><path d="M660 2790 C680 2790 660 2790 680 2790" style="fill:transparent;stroke:black" /><rect x="900" y="2770" width="200" height="40" style="fill:white;stroke:black;stroke-width:1" /><text x="910" y="2780" font-size="10" style="fill:blue">xs:element</text><path d="M880 2790 C900 2790 880 2790 900 2790" style="fill:transparent;stroke:black" /><text x="910" y="2790" font-size="8" style="fill:black">ref: longitud</text><rect x="900" y="2820" width="200" height="40" style="fill:white;stroke:black;stroke-width:1" /><text x="910" y="2830" font-size="10" style="fill:blue">xs:element</text><path d="M880 2790 C900 2790 880 2840 900 2840" style="fill:transparent;stroke:black" /><text x="910" y="2840" font-size="8" style="fill:black">ref: latitud</text><rect x="900" y="2870" width="200" height="40" style="fill:white;stroke:black;stroke-width:1" /><text x="910" y="2880" font-size="10" style="fill:blue">xs:element</text><path d="M880 2790 C900 2790 880 2890 900 2890" style="fill:transparent;stroke:black" /><text x="910" y="2890" font-size="8" style="fill:black">ref: altitud</text><rect x="240" y="3070" width="200" height="40" style="fill:white;stroke:black;stroke-width:1" /><text x="250" y="3080" font-size="10" style="fill:blue">xs:element</text><path d="M220 40 C240 40 220 3090 240 3090" style="fill:transparent;stroke:black" /><text x="250" y="3090" font-size="8" style="fill:black">name: longitud</text><rect x="460" y="3070" width="200" height="40" style="fill:white;stroke:black;stroke-width:1" /><text x="470" y="3080" font-size="10" style="fill:blue">xs:simpleType</text><path d="M440 3090 C460 3090 440 3090 460 3090" style="fill:transparent;stroke:black" /><rect x="680" y="3070" width="200" height="40" style="fill:white;stroke:black;stroke-width:1" /><text x="690" y="3080" font-size="10" style="fill:blue">xs:restriction</text><path d="M660 3090 C680 3090 660 3090 680 3090" style="fill:transparent;stroke:black" /><text x="690" y="3090" font-size="8" style="fill:black">base: xs:float</text><rect x="900" y="3070" width="200" height="40" style="fill:white;stroke:black;stroke-width:1" /><text x="910" y="3080" font-size="10" style="fill:blue">xs:minInclusive</text><path d="M880 3090 C900 3090 880 3090 900 3090" style="fill:transparent;stroke:black" /><text x="910" y="3090" font-size="8" style="fill:black">value: -180</text><rect x="900" y="3120" width="200" height="40" style="fill:white;stroke:black;stroke-width:1" /><text x="910" y="3130" font-size="10" style="fill:blue">xs:maxInclusive</text><path d="M880 3090 C900 3090 880 3140 900 3140" style="fill:transparent;stroke:black" /><text x="910" y="3140" font-size="8" style="fill:black">value: 180</text><rect x="240" y="3320" width="200" height="40" style="fill:white;stroke:black;stroke-width:1" /><text x="250" y="3330" font-size="10" style="fill:blue">xs:element</text><path d="M220 40 C240 40 220 3340 240 3340" style="fill:transparent;stroke:black" /><text x="250" y="3340" font-size="8" style="fill:black">name: latitud</text><rect x="460" y="3320" width="200" height="40" style="fill:white;stroke:black;stroke-width:1" /><text x="470" y="3330" font-size="10" style="fill:blue">xs:simpleType</text><path d="M440 3340 C460 3340 440 3340 460 3340" style="fill:transparent;stroke:black" /><rect x="680" y="3320" width="200" height="40" style="fill:white;stroke:black;stroke-width:1" /><text x="690" y="3330" font-size="10" style="fill:blue">xs:restriction</text><path d="M660 3340 C680 3340 660 3340 680 3340" style="fill:transparent;stroke:black" /><text x="690" y="3340" font-size="8" style="fill:black">base: xs:float</text><rect x="900" y="3320" width="200" height="40" style="fill:white;stroke:black;stroke-width:1" /><text x="910" y="3330" font-size="10" style="fill:blue">xs:minInclusive</text><path d="M880 3340 C900 3340 880 3340 900 3340" style="fill:transparent;stroke:black" /><text x="910" y="3340" font-size="8" style="fill:black">value: -90</text><rect x="900" y="3370" width="200" height="40" style="fill:white;stroke:black;stroke-width:1" /><text x="910" y="3380" font-size="10" style="fill:blue">xs:maxInclusive</text><path d="M880 3340 C900 3340 880 3390 900 3390" style="fill:transparent;stroke:black" /><text x="910" y="3390" font-size="8" style="fill:black">value: 90</text><rect x="240" y="3570" width="200" height="40" style="fill:white;stroke:black;stroke-width:1" /><text x="250" y="3580" font-size="10" style="fill:blue">xs:element</text><path d="M220 40 C240 40 220 3590 240 3590" style="fill:transparent;stroke:black" /><text x="250" y="3590" font-size="8" style="fill:black">name: altitud</text><rect x="460" y="3570" width="200" height="40" style="fill:white;stroke:black;stroke-width:1" /><text x="470" y="3580" font-size="10" style="fill:blue">xs:simpleType</text><path d="M440 3590 C460 3590 440 3590 460 3590" style="fill:transparent;stroke:black" /><rect x="680" y="3570" width="200" height="40" style="fill:white;stroke:black;stroke-width:1" /><text x="690" y="3580" font-size="10" style="fill:blue">xs:restriction</text><path d="M660 3590 C680 3590 660 3590 680 3590" style="fill:transparent;stroke:black" /><text x="690" y="3590" font-size="8" style="fill:black">base: xs:float</text><rect x="900" y="3570" width="200" height="40" style="fill:white;stroke:black;stroke-width:1" /><text x="910" y="3580" font-size="10" style="fill:blue">xs:minInclusive</text><path d="M880 3590 C900 3590 880 3590 900 3590" style="fill:transparent;stroke:black" /><text x="910" y="3590" font-size="8" style="fill:black">value: -30</text><rect x="900" y="3620" width="200" height="40" style="fill:white;stroke:black;stroke-width:1" /><text x="910" y="3630" font-size="10" style="fill:blue">xs:maxInclusive</text><path d="M880 3590 C900 3590 880 3640 900 3640" style="fill:transparent;stroke:black" /><text x="910" y="3640" font-size="8" style="fill:black">value: 8000</text><rect x="240" y="3820" width="200" height="40" style="fill:white;stroke:black;stroke-width:1" /><text x="250" y="3830" font-size="10" style="fill:blue">xs:element</text><path d="M220 40 C240 40 220 3840 240 3840" style="fill:transparent;stroke:black" /><text x="250" y="3840" font-size="8" style="fill:black">name: tramos</text><rect x="460" y="3820" width="200" height="40" style="fill:white;stroke:black;stroke-width:1" /><text x="470" y="3830" font-size="10" style="fill:blue">xs:complexType</text><path d="M440 3840 C460 3840 440 3840 460 3840" style="fill:transparent;stroke:black" /><rect x="680" y="3820" width="200" height="40" style="fill:white;stroke:black;stroke-width:1" /><text x="690" y="3830" font-size="10" style="fill:blue">xs:sequence</text><path d="M660 3840 C680 3840 660 3840 680 3840" style="fill:transparent;stroke:black" /><rect x="900" y="3820" width="200" height="40" style="fill:white;stroke:black;stroke-width:1" /><text x="910" y="3830" font-size="10" style="fill:blue">xs:element</text><path d="M880 3840 C900 3840 880 3840 900 3840" style="fill:transparent;stroke:black" /><text x="910" y="3840" font-size="8" style="fill:black">minOccurs: 0</text><text x="910" y="3850" font-size="8" style="fill:black">maxOccurs: unbounded</text><text x="910" y="3860" font-size="8" style="fill:black">ref: tramo</text><rect x="240" y="4020" width="200" height="40" style="fill:white;stroke:black;stroke-width:1" /><text x="250" y="4030" font-size="10" style="fill:blue">xs:element</text><path d="M220 40 C240 40 220 4040 240 4040" style="fill:transparent;stroke:black" /><text x="250" y="4040" font-size="8" style="fill:black">name: tramo</text><rect x="460" y="4020" width="200" height="40" style="fill:white;stroke:black;stroke-width:1" /><text x="470" y="4030" font-size="10" style="fill:blue">xs:complexType</text><path d="M440 4040 C460 4040 440 4040 460 4040" style="fill:transparent;stroke:black" /><rect x="680" y="4020" width="200" height="40" style="fill:white;stroke:black;stroke-width:1" /><text x="690" y="4030" font-size="10" style="fill:blue">xs:sequence</text><path d="M660 4040 C680 4040 660 4040 680 4040" style="fill:transparent;stroke:black" /><rect x="900" y="4020" width="200" height="40" style="fill:white;stroke:black;stroke-width:1" /><text x="910" y="4030" font-size="10" style="fill:blue">xs:element</text><path d="M880 4040 C900 4040 880 4040 900 4040" style="fill:transparent;stroke:black" /><text x="910" y="4040" font-size="8" style="fill:black">ref: distancia</text><rect x="900" y="4070" width="200" height="40" style="fill:white;stroke:black;stroke-width:1" /><text x="910" y="4080" font-size="10" style="fill:blue">xs:element</text><path d="M880 4040 C900 4040 880 4090 900 4090" style="fill:transparent;stroke:black" /><text x="910" y="4090" font-size="8" style="fill:black">ref: coordenadas</text><rect x="900" y="4120" width="200" height="40" style="fill:white;stroke:black;stroke-width:1" /><text x="910" y="4130" font-size="10" style="fill:blue">xs:element</text><path d="M880 4040 C900 4040 880 4140 900 4140" style="fill:transparent;stroke:black" /><text x="910" y="4140" font-size="8" style="fill:black">ref: sector</text><rect x="240" y="4320" width="200" height="40" style="fill:white;stroke:black;stroke-width:1" /><text x="250" y="4330" font-size="10" style="fill:blue">xs:element</text><path d="M220 40 C240 40 220 4340 240 4340" style="fill:transparent;stroke:black" /><text x="250" y="4340" font-size="8" style="fill:black">name: distancia</text><rect x="460" y="4320" width="200" height="40" style="fill:white;stroke:black;stroke-width:1" /><text x="470" y="4330" font-size="10" style="fill:blue">xs:complexType</text><path d="M440 4340 C460 4340 440 4340 460 4340" style="fill:transparent;stroke:black" /><rect x="680" y="4320" width="200" height="40" style="fill:white;stroke:black;stroke-width:1" /><text x="690" y="4330" font-size="10" style="fill:blue">xs:simpleContent</text><path d="M660 4340 C680 4340 660 4340 680 4340" style="fill:transparent;stroke:black" /><rect x="900" y="4320" width="200" height="40" style="fill:white;stroke:black;stroke-width:1" /><text x="910" y="4330" font-size="10" style="fill:blue">xs:extension</text><path d="M880 4340 C900 4340 880 4340 900 4340" style="fill:transparent;stroke:black" /><text x="910" y="4340" font-size="8" style="fill:black">base: xs:float</text><rect x="1120" y="4320" width="200" height="40" style="fill:white;stroke:black;stroke-width:1" /><text x="1130" y="4330" font-size="10" style="fill:blue">xs:attribute</text><path d="M1100 4340 C1120 4340 1100 4340 1120 4340" style="fill:transparent;stroke:black" /><text x="1130" y="4340" font-size="8" style="fill:black">name: unidad</text><text x="1130" y="4350" font-size="8" style="fill:black">type: xs:string</text><text x="1130" y="4360" font-size="8" style="fill:black">use: required</text><rect x="240" y="4570" width="200" height="40" style="fill:white;stroke:black;stroke-width:1" /><text x="250" y="4580" font-size="10" style="fill:blue">xs:element</text><path d="M220 40 C240 40 220 4590 240 4590" style="fill:transparent;stroke:black" /><text x="250" y="4590" font-size="8" style="fill:black">name: sector</text><text x="250" y="4600" font-size="8" style="fill:black">type: xs:integer</text></svg>